<?xml version="1.0" encoding="UTF-8" standalone="no"?>
<svg
   xmlns:dc="http://purl.org/dc/elements/1.1/"
   xmlns:cc="http://creativecommons.org/ns#"
   xmlns:rdf="http://www.w3.org/1999/02/22-rdf-syntax-ns#"
   xmlns:svg="http://www.w3.org/2000/svg"
   xmlns="http://www.w3.org/2000/svg"
   xmlns:sodipodi="http://sodipodi.sourceforge.net/DTD/sodipodi-0.dtd"
   xmlns:inkscape="http://www.inkscape.org/namespaces/inkscape"
   width="210mm"
   height="297mm"
   viewBox="0 0 210 297"
   version="1.1"
   id="svg2728"
   inkscape:version="1.0.1 (3bc2e813f5, 2020-09-07)"
   sodipodi:docname="deltakокрестность.svg">
  <defs
     id="defs2722">
    <inkscape:path-effect
       effect="bspline"
       id="path-effect3488"
       is_visible="true"
       lpeversion="1"
       weight="33.333333"
       steps="2"
       helper_size="0"
       apply_no_weight="true"
       apply_with_weight="true"
       only_selected="false" />
    <inkscape:path-effect
       effect="bspline"
       id="path-effect3484"
       is_visible="true"
       lpeversion="1"
       weight="33.333333"
       steps="2"
       helper_size="0"
       apply_no_weight="true"
       apply_with_weight="true"
       only_selected="false" />
    <inkscape:path-effect
       effect="bspline"
       id="path-effect3465"
       is_visible="true"
       lpeversion="1"
       weight="33.333333"
       steps="2"
       helper_size="0"
       apply_no_weight="true"
       apply_with_weight="true"
       only_selected="false" />
    <inkscape:path-effect
       effect="bspline"
       id="path-effect3425"
       is_visible="true"
       lpeversion="1"
       weight="33.333333"
       steps="2"
       helper_size="0"
       apply_no_weight="true"
       apply_with_weight="true"
       only_selected="false" />
    <inkscape:path-effect
       effect="bspline"
       id="path-effect3421"
       is_visible="true"
       lpeversion="1"
       weight="33.333333"
       steps="2"
       helper_size="0"
       apply_no_weight="true"
       apply_with_weight="true"
       only_selected="false" />
    <inkscape:path-effect
       effect="bspline"
       id="path-effect3417"
       is_visible="true"
       lpeversion="1"
       weight="33.333333"
       steps="2"
       helper_size="0"
       apply_no_weight="true"
       apply_with_weight="true"
       only_selected="false" />
    <inkscape:path-effect
       effect="bspline"
       id="path-effect3398"
       is_visible="true"
       lpeversion="1"
       weight="33.333333"
       steps="2"
       helper_size="0"
       apply_no_weight="true"
       apply_with_weight="true"
       only_selected="false" />
    <inkscape:path-effect
       effect="bspline"
       id="path-effect3376"
       is_visible="true"
       lpeversion="1"
       weight="33.333333"
       steps="2"
       helper_size="0"
       apply_no_weight="true"
       apply_with_weight="true"
       only_selected="false" />
    <inkscape:path-effect
       effect="bspline"
       id="path-effect3372"
       is_visible="true"
       lpeversion="1"
       weight="33.333333"
       steps="2"
       helper_size="0"
       apply_no_weight="true"
       apply_with_weight="true"
       only_selected="false" />
  </defs>
  <sodipodi:namedview
     id="base"
     pagecolor="#ffffff"
     bordercolor="#666666"
     borderopacity="1.0"
     inkscape:pageopacity="0.0"
     inkscape:pageshadow="2"
     inkscape:zoom="1.4"
     inkscape:cx="-19.076511"
     inkscape:cy="477.99967"
     inkscape:document-units="mm"
     inkscape:current-layer="layer1"
     inkscape:document-rotation="0"
     showgrid="false"
     inkscape:window-width="3416"
     inkscape:window-height="1385"
     inkscape:window-x="1932"
     inkscape:window-y="43"
     inkscape:window-maximized="0" />
  <metadata
     id="metadata2725">
    <rdf:RDF>
      <cc:Work
         rdf:about="">
        <dc:format>image/svg+xml</dc:format>
        <dc:type
           rdf:resource="http://purl.org/dc/dcmitype/StillImage" />
        <dc:title></dc:title>
      </cc:Work>
    </rdf:RDF>
  </metadata>
  <g
     inkscape:label="Layer 1"
     inkscape:groupmode="layer"
     id="layer1">
    <ellipse
       style="fill:none;stroke:#000000;stroke-width:0.231669;stroke-opacity:1"
       id="path2730"
       cx="36.940453"
       cy="125.14674"
       rx="32.263783"
       ry="31.960014" />
    <ellipse
       style="fill:none;stroke:#000000;stroke-width:0.231669;stroke-opacity:1"
       id="path2730-9"
       cx="77.785873"
       cy="114.85051"
       rx="32.263783"
       ry="31.960012" />
    <ellipse
       style="fill:none;stroke:#000000;stroke-width:0.231669;stroke-opacity:1"
       id="path2730-9-6"
       cx="125.912"
       cy="124.48051"
       rx="32.263783"
       ry="31.960012" />
    <ellipse
       style="fill:#000000;fill-opacity:1;stroke:#000000;stroke-width:0.264999;stroke-opacity:1"
       id="path3323"
       cx="15.578989"
       cy="138.43039"
       rx="1.2462682"
       ry="1.2420105" />
    <ellipse
       style="fill:#000000;fill-opacity:1;stroke:#000000;stroke-width:0.264999;stroke-opacity:1"
       id="path3323-4"
       cx="57.534592"
       cy="118.84007"
       rx="1.2462682"
       ry="1.2420105" />
    <ellipse
       style="fill:#000000;fill-opacity:1;stroke:#000000;stroke-width:0.264999;stroke-opacity:1"
       id="path3323-4-3"
       cx="103.31495"
       cy="119.32845"
       rx="1.2462682"
       ry="1.2420105" />
    <ellipse
       style="fill:#000000;fill-opacity:1;stroke:#000000;stroke-width:0.264999;stroke-opacity:1"
       id="path3323-4-3-3"
       cx="149.35616"
       cy="137.88181"
       rx="1.2462682"
       ry="1.2420105" />
    <path
       style="fill:none;stroke:#000000;stroke-width:0.264583px;stroke-linecap:butt;stroke-linejoin:miter;stroke-opacity:1"
       d="m 15.77634,137.61791 c 0.08344,-0.39706 0.166915,-0.79433 0.218256,-3.21033 0.05134,-2.416 0.0705,-6.85062 1.388124,-6.82137 1.31762,0.0293 3.933405,4.52222 6.167147,5.68046 2.233743,1.15824 4.08552,-1.01798 5.173435,-3.73417 1.087915,-2.7162 1.411925,-5.97243 3.110427,-6.52852 1.698502,-0.55608 4.771036,1.58796 6.827709,4.89907 2.056674,3.3111 3.097606,7.78895 4.820473,10.32101 1.722866,2.53206 4.127309,3.11846 6.005666,2.3287 1.878357,-0.78976 3.230881,-2.95561 3.86264,-5.05788 0.63176,-2.10227 0.542672,-4.14104 0.644209,-6.50376 0.101537,-2.36272 0.393725,-5.0492 1.23885,-6.87531 0.845125,-1.8261 2.243041,-2.79146 4.334037,-6.26435 2.090995,-3.47288 4.875042,-9.45319 9.029352,-13.2207 4.154311,-3.767512 9.67838,-5.321881 11.25333,0.63508 1.574951,5.95697 -0.799019,19.42449 2.292437,23.12027 3.091456,3.69578 11.647787,-2.37985 19.456128,-6.27821 7.80834,-3.89836 14.86775,-5.61902 17.48283,-0.49885 2.61507,5.12018 0.78594,17.08048 1.87416,19.63441 1.08823,2.55393 5.09372,-4.29833 8.52721,-5.177 3.4335,-0.87866 6.29458,4.21596 9.68043,5.71194 3.38586,1.49599 7.20483,-0.55711 11.06956,-2.63481"
       id="path3374"
       inkscape:path-effect="#path-effect3376"
       inkscape:original-d="m 15.77634,137.61791 c 0.08374,-0.397 0.167222,-0.79427 0.250435,-1.1918 0.01943,-4.43453 0.03859,-8.86915 0.05749,-13.30412 2.616156,4.49342 5.231943,8.98639 7.847518,13.47919 1.852113,-2.17603 3.703887,-4.35225 5.555436,-6.52877 0.324286,-3.25608 0.648295,-6.51231 0.972047,-9.76886 3.072927,2.1444 6.145464,4.28844 9.217798,6.43227 1.041241,4.47829 2.082175,8.95613 3.122863,13.4338 2.404804,0.58669 4.809247,1.17309 7.213473,1.75924 1.352844,-2.16567 2.705368,-4.33152 4.057656,-6.49768 -0.08883,-2.03858 -0.177917,-4.07735 -0.267269,-6.11642 0.292465,-2.68633 0.584655,-5.37281 0.876585,-8.05962 1.398239,-0.96513 2.796154,-1.93049 4.193834,-2.89613 2.784422,-5.98028 5.568469,-11.96059 8.352303,-17.94128 5.524556,-1.554166 11.048624,-3.108537 16.57254,-4.663203 -2.373802,13.468333 -4.747774,26.935853 -7.122055,40.403393 8.557107,-6.07573 17.113438,-12.15136 25.670006,-18.22761 7.05997,-1.72047 14.11939,-3.44112 21.1787,-5.16208 -1.82895,11.96104 -3.65808,23.92134 -5.48751,35.88161 4.00591,-6.85226 8.01139,-13.70453 12.01669,-20.55719 2.86146,5.0951 5.72254,10.18972 8.58342,15.28418 3.86516,-2.18724 7.72989,-4.15523 11.59445,-6.23324"
       sodipodi:nodetypes="cccccccccccccccccccccc" />
    <path
       style="fill:none;stroke:#ff8e00;stroke-width:0.264583px;stroke-linecap:butt;stroke-linejoin:miter;stroke-opacity:1"
       d="m 56.507331,118.04004 c 3.942947,-6.38862 7.885936,-12.77731 11.207072,-16.34569 3.321135,-3.568382 5.819345,-4.260672 7.868682,-4.233087 2.049336,0.02759 3.549175,0.80263 4.578666,1.776171 1.029492,0.973536 1.588747,2.145346 1.91263,3.694616 0.323883,1.54927 0.412514,3.47593 0.415669,6.81317 0.0032,3.33725 -0.07915,8.08487 0.150282,11.04306 0.229428,2.9582 0.7704,4.12676 1.925467,4.48817 1.155066,0.3614 2.924047,-0.084 4.590919,-0.68674 1.666871,-0.6027 3.228759,-1.36125 5.468817,-2.44019 2.240058,-1.07893 5.142376,-2.47059 8.049745,-3.86467"
       id="path3463"
       inkscape:path-effect="#path-effect3465"
       inkscape:original-d="m 56.507331,118.04004 c 3.943256,-6.38843 7.886246,-12.77712 11.828971,-19.166075 2.707031,-0.719868 5.197533,-1.439974 7.795905,-2.160357 1.500162,0.77534 3,1.550387 4.499603,2.325182 0.559546,1.17213 1.118803,2.34394 1.677807,3.51552 0.0889,1.927 0.17753,3.85366 0.265898,5.78009 -0.08204,4.74807 -0.16434,9.49569 -0.246909,14.24313 0.54127,1.1689 1.082244,2.33746 1.622985,3.50583 1.769352,-0.4452 3.538334,-0.89063 5.307158,-1.33636 1.564994,-0.75967 3.126883,-1.51822 4.694091,-2.27975 2.912902,-1.39635 5.815224,-2.788 8.72244,-4.1824"
       sodipodi:nodetypes="ccccccccccc" />
    <path
       style="fill:none;stroke:#ff8e00;stroke-width:0.264583px;stroke-linecap:butt;stroke-linejoin:miter;stroke-opacity:1"
       d="m 58.728718,119.57253 c 2.992794,-4.72406 5.985634,-9.44818 8.126652,-12.4146 2.141018,-2.96641 3.430108,-4.17498 4.594228,-4.979 1.16412,-0.80401 2.203065,-1.20337 3.125743,-1.28872 0.922679,-0.0853 1.728867,0.14319 2.29692,0.45071 0.568054,0.30751 0.898024,0.6938 1.168078,1.45325 0.270055,0.75945 0.480364,1.89199 0.628952,4.98763 0.148589,3.09563 0.235503,8.15417 0.460693,11.73521 0.225191,3.58104 0.588595,5.68435 1.193099,7.07337 0.604505,1.38902 1.449826,2.06374 2.476934,2.44091 1.027107,0.37717 2.235936,0.45697 5.735173,-0.9869 3.499236,-1.44388 9.265748,-4.39943 15.0438,-7.36089"
       id="path3486"
       inkscape:path-effect="#path-effect3488"
       inkscape:original-d="m 58.728718,119.57253 c 2.993104,-4.72386 5.985941,-9.44799 8.978516,-14.17238 1.28941,-1.20836 2.578502,-2.41693 3.867359,-3.6258 1.039249,-0.39911 2.078194,-0.79847 3.116895,-1.19811 0.806484,0.2288 1.61267,0.45734 2.418606,0.68561 0.330248,0.38656 0.660218,0.77285 0.989928,1.15889 0.210579,1.13284 0.420889,2.26538 0.630936,3.39767 0.08718,5.05902 0.174096,10.11756 0.260747,15.17595 0.363683,2.10365 0.727088,4.20696 1.090234,6.31005 0.845622,0.67502 1.690947,1.34974 2.536021,2.02422 1.209146,0.0801 2.417977,0.15988 3.626567,0.23942 5.790061,-2.96722 11.556573,-5.92277 17.334463,-8.88455"
       sodipodi:nodetypes="cccccccccccc" />
  </g>
</svg>
