<svg xmlns="http://www.w3.org/2000/svg" xmlns:svg="http://www.w3.org/2000/svg" id="svg2728" width="210mm" height="297mm" version="1.1" viewBox="0 0 210 297"><metadata id="metadata2725"/><g id="layer1"><ellipse style="fill:none;stroke:#000;stroke-width:.231669;stroke-opacity:1" id="path2730" cx="36.94" cy="125.147" rx="32.264" ry="31.96"/><ellipse style="fill:none;stroke:#000;stroke-width:.231669;stroke-opacity:1" id="path2730-9" cx="77.786" cy="114.851" rx="32.264" ry="31.96"/><ellipse style="fill:none;stroke:#000;stroke-width:.231669;stroke-opacity:1" id="path2730-9-6" cx="125.912" cy="124.481" rx="32.264" ry="31.96"/><ellipse style="fill:#000;fill-opacity:1;stroke:#000;stroke-width:.264999;stroke-opacity:1" id="path3323" cx="15.579" cy="138.43" rx="1.246" ry="1.242"/><ellipse style="fill:#000;fill-opacity:1;stroke:#000;stroke-width:.264999;stroke-opacity:1" id="path3323-4" cx="57.535" cy="118.84" rx="1.246" ry="1.242"/><ellipse style="fill:#000;fill-opacity:1;stroke:#000;stroke-width:.264999;stroke-opacity:1" id="path3323-4-3" cx="103.315" cy="119.328" rx="1.246" ry="1.242"/><ellipse style="fill:#000;fill-opacity:1;stroke:#000;stroke-width:.264999;stroke-opacity:1" id="path3323-4-3-3" cx="149.356" cy="137.882" rx="1.246" ry="1.242"/><path style="fill:none;stroke:#000;stroke-width:.264583px;stroke-linecap:butt;stroke-linejoin:miter;stroke-opacity:1" id="path3374" d="m 15.77634,137.61791 c 0.08344,-0.39706 0.166915,-0.79433 0.218256,-3.21033 0.05134,-2.416 0.0705,-6.85062 1.388124,-6.82137 1.31762,0.0293 3.933405,4.52222 6.167147,5.68046 2.233743,1.15824 4.08552,-1.01798 5.173435,-3.73417 1.087915,-2.7162 1.411925,-5.97243 3.110427,-6.52852 1.698502,-0.55608 4.771036,1.58796 6.827709,4.89907 2.056674,3.3111 3.097606,7.78895 4.820473,10.32101 1.722866,2.53206 4.127309,3.11846 6.005666,2.3287 1.878357,-0.78976 3.230881,-2.95561 3.86264,-5.05788 0.63176,-2.10227 0.542672,-4.14104 0.644209,-6.50376 0.101537,-2.36272 0.393725,-5.0492 1.23885,-6.87531 0.845125,-1.8261 2.243041,-2.79146 4.334037,-6.26435 2.090995,-3.47288 4.875042,-9.45319 9.029352,-13.2207 4.154311,-3.767512 9.67838,-5.321881 11.25333,0.63508 1.574951,5.95697 -0.799019,19.42449 2.292437,23.12027 3.091456,3.69578 11.647787,-2.37985 19.456128,-6.27821 7.80834,-3.89836 14.86775,-5.61902 17.48283,-0.49885 2.61507,5.12018 0.78594,17.08048 1.87416,19.63441 1.08823,2.55393 5.09372,-4.29833 8.52721,-5.177 3.4335,-0.87866 6.29458,4.21596 9.68043,5.71194 3.38586,1.49599 7.20483,-0.55711 11.06956,-2.63481"/><path style="fill:none;stroke:#ff8e00;stroke-width:.264583px;stroke-linecap:butt;stroke-linejoin:miter;stroke-opacity:1" id="path3463" d="m 56.507331,118.04004 c 3.942947,-6.38862 7.885936,-12.77731 11.207072,-16.34569 3.321135,-3.568382 5.819345,-4.260672 7.868682,-4.233087 2.049336,0.02759 3.549175,0.80263 4.578666,1.776171 1.029492,0.973536 1.588747,2.145346 1.91263,3.694616 0.323883,1.54927 0.412514,3.47593 0.415669,6.81317 0.0032,3.33725 -0.07915,8.08487 0.150282,11.04306 0.229428,2.9582 0.7704,4.12676 1.925467,4.48817 1.155066,0.3614 2.924047,-0.084 4.590919,-0.68674 1.666871,-0.6027 3.228759,-1.36125 5.468817,-2.44019 2.240058,-1.07893 5.142376,-2.47059 8.049745,-3.86467"/><path style="fill:none;stroke:#ff8e00;stroke-width:.264583px;stroke-linecap:butt;stroke-linejoin:miter;stroke-opacity:1" id="path3486" d="m 58.728718,119.57253 c 2.992794,-4.72406 5.985634,-9.44818 8.126652,-12.4146 2.141018,-2.96641 3.430108,-4.17498 4.594228,-4.979 1.16412,-0.80401 2.203065,-1.20337 3.125743,-1.28872 0.922679,-0.0853 1.728867,0.14319 2.29692,0.45071 0.568054,0.30751 0.898024,0.6938 1.168078,1.45325 0.270055,0.75945 0.480364,1.89199 0.628952,4.98763 0.148589,3.09563 0.235503,8.15417 0.460693,11.73521 0.225191,3.58104 0.588595,5.68435 1.193099,7.07337 0.604505,1.38902 1.449826,2.06374 2.476934,2.44091 1.027107,0.37717 2.235936,0.45697 5.735173,-0.9869 3.499236,-1.44388 9.265748,-4.39943 15.0438,-7.36089"/></g></svg>