<svg xmlns="http://www.w3.org/2000/svg" xmlns:svg="http://www.w3.org/2000/svg" id="svg8" width="210mm" height="297mm" version="1.1" viewBox="0 0 210 297"><metadata id="metadata5"/><g id="layer1"><ellipse style="fill:none;stroke:#3e3e3e;stroke-width:.264495;stroke-miterlimit:4;stroke-dasharray:.793485,.264495;stroke-dashoffset:0;stroke-opacity:1" id="path856" cx="101.461" cy="90.705" rx="10.296" ry="3.494"/><ellipse style="fill:none;stroke:#3e3e3e;stroke-width:.265;stroke-miterlimit:4;stroke-dasharray:.795,.265;stroke-dashoffset:0;stroke-opacity:1" id="path856-3" cx="101.419" cy="59.779" rx="10.308" ry="3.502"/><path style="fill:none;stroke:#777;stroke-width:.264583px;stroke-linecap:butt;stroke-linejoin:miter;stroke-opacity:1" id="path942" d="m 132.30218,98.580095 c 8.98406,-4.752759 17.96803,-9.505467 26.95191,-14.258126"/><path style="fill:none;stroke:#777;stroke-width:.264583px;stroke-linecap:butt;stroke-linejoin:miter;stroke-opacity:1" id="path946" d="m 45.03715,98.580095 c 29.088606,0 58.17695,0 87.26503,0"/><path style="fill:none;stroke:#777;stroke-width:.264583px;stroke-linecap:butt;stroke-linejoin:miter;stroke-opacity:1" id="path950" d="m 45.03715,98.580095 c 8.984067,-4.75276 17.968038,-9.505469 26.95191,-14.258126"/><path style="fill:none;stroke:#777;stroke-width:.264583px;stroke-linecap:butt;stroke-linejoin:miter;stroke-opacity:1" id="path954" d="m 91.026095,84.328938 c -6.345415,-0.0023 -12.691091,-0.0047 -19.037035,-0.007"/><path style="fill:none;stroke:#777;stroke-width:.264583px;stroke-linecap:butt;stroke-linejoin:miter;stroke-opacity:1" id="path962" d="m 159.37317,84.323181 c -15.84355,-0.004 -31.68737,-0.008 -47.53145,-0.01206"/><path style="fill:none;stroke:#3e3e3e;stroke-width:.265;stroke-linecap:butt;stroke-linejoin:miter;stroke-miterlimit:4;stroke-dasharray:.795,.265;stroke-dashoffset:0;stroke-opacity:1" id="path966-8" d="m 91.139961,66.266325 c -0.0098,-2.21649 -0.0195,-4.430011 -0.02925,-6.645414"/><path style="fill:none;stroke:#3e3e3e;stroke-width:.264999;stroke-linecap:butt;stroke-linejoin:miter;stroke-miterlimit:4;stroke-dasharray:.794999,.264999;stroke-dashoffset:0;stroke-opacity:1" id="path966-8-9" d="m 111.69397,66.27129 c -0.008,-2.067693 -0.0165,-4.132634 -0.0247,-6.199349"/><circle style="fill:none;stroke:#3e3e3e;stroke-width:.264999;stroke-opacity:1" id="path856-6" cx="0" cy="0" r="0"/><path style="fill:none;stroke:#777;stroke-width:.264583;stroke-linecap:butt;stroke-linejoin:miter;stroke-miterlimit:4;stroke-dasharray:.793749,.264583;stroke-dashoffset:0;stroke-opacity:1" id="path954-4" d="m 111.84172,84.311121 c -6.93828,0.0059 -13.876818,0.01188 -20.815625,0.01782"/><path style="fill:none;stroke:#3e3e3e;stroke-width:.265;stroke-miterlimit:4;stroke-dasharray:none;stroke-dashoffset:0;stroke-opacity:1" id="path856-1" d="m 111.7566,90.703288 a 10.296,3.5020001 0 0 1 -5.16572,3.030328 10.296,3.5020001 0 0 1 -10.298514,-0.0075 10.296,3.5020001 0 0 1 -5.127715,-3.037788"/></g><g id="layer2"><path style="fill:none;stroke:#000;stroke-width:.264583px;stroke-linecap:butt;stroke-linejoin:miter;stroke-opacity:1" id="path938" d="m 91.093275,70.994127 c -0.81801,0.174988 -1.63622,0.350018 -2.241702,0.779706 -0.605483,0.429688 -0.997966,1.113865 -1.795131,1.408347 -0.797165,0.294482 -1.999247,0.199296 -2.578452,0.592026 -0.579205,0.39273 -0.535192,1.273092 -0.0097,1.932223 0.52551,0.659131 1.532147,1.097124 1.829301,1.774026 0.297155,0.676902 -0.114844,1.592667 0.262088,2.177473 0.376933,0.584805 1.542399,0.838676 2.239622,1.226256 0.697223,0.387581 0.926341,0.908593 1.783817,1.367525 0.857477,0.458931 2.343044,0.855984 3.643,0.707261 1.299955,-0.148723 2.414383,-0.843076 3.572992,-0.832022 1.15861,0.01105 2.361052,0.727297 4.126792,0.633586 1.76575,-0.09371 4.09493,-0.997147 6.1937,-1.210157 2.09878,-0.213009 3.96694,0.264266 5.3905,0.210031 1.42356,-0.05423 2.40266,-0.639854 2.78002,-1.452329 0.37736,-0.812475 0.153,-1.852114 0.29049,-2.682348 0.13749,-0.830233 0.63691,-1.450736 0.34975,-2.076731 -0.28715,-0.625996 -1.36119,-1.257597 -1.54575,-2.02763 -0.18456,-0.770033 0.52071,-1.678298 0.0642,-2.154128 -0.45655,-0.47583 -2.15668,-0.521359 -3.81635,-0.565805"/><path id="rect833" d="M 79.783532,51.885886 H 167.04856 L 140.09665,66.144012 H 52.831619 Z" style="fill:none;stroke:#777;stroke-width:.265;stroke-miterlimit:4;stroke-dasharray:none;stroke-dashoffset:0;stroke-opacity:1"/><path style="fill:none;stroke:#000;stroke-width:.265;stroke-linecap:butt;stroke-linejoin:miter;stroke-miterlimit:4;stroke-dasharray:.795,.265;stroke-dashoffset:0;stroke-opacity:1" id="path1071" d="m 91.093273,70.994126 c 0.806918,-0.173682 1.613641,-0.347322 2.275898,-0.598227 0.662258,-0.250904 1.180164,-0.579061 1.784106,-0.526782 0.603943,0.05228 1.293643,0.484745 2.057457,0.334425 0.763813,-0.150319 1.601978,-0.883191 2.683514,-0.820884 1.081532,0.06231 2.406092,0.919569 3.398652,1.346755 0.99256,0.427186 1.65313,0.424486 2.21048,0.09034 0.55734,-0.334147 1.01175,-0.999775 1.73467,-1.028447 0.72292,-0.02867 1.71396,0.579466 2.52995,0.853884 0.81598,0.274418 1.45694,0.215322 2.09768,0.156246"/><path style="fill:none;stroke:#3e3e3e;stroke-width:.264583px;stroke-linecap:butt;stroke-linejoin:miter;stroke-opacity:1" id="path966-1" d="m 111.75437,90.587811 c -0.0202,-8.111163 -0.0403,-16.210749 -0.0604,-24.316521"/><path style="fill:none;stroke:#3e3e3e;stroke-width:.264583px;stroke-linecap:butt;stroke-linejoin:miter;stroke-opacity:1" id="path966" d="m 91.164661,90.688363 c -0.0082,-8.146361 -0.01647,-16.281095 -0.0247,-24.422038"/></g></svg>