<svg xmlns="http://www.w3.org/2000/svg" xmlns:ns2="http://www.iki.fi/pav/software/textext/" xmlns:svg="http://www.w3.org/2000/svg" id="svg8" width="210mm" height="297mm" version="1.1" viewBox="0 0 210 297"><metadata id="metadata5"/><g id="layer1"><path style="fill:none;stroke:#000;stroke-width:.264583px;stroke-linecap:butt;stroke-linejoin:miter;stroke-opacity:1" id="path837" d="m 69.026397,51.26573 c -0.637446,3.003386 -0.812679,7.569837 4.085381,12.682634 4.89806,5.112797 14.868692,10.771787 24.962702,13.078045 10.09401,2.306258 20.31087,1.259916 27.12553,-1.888265 6.81467,-3.148181 10.22706,-8.398059 16.10222,-11.403455 5.87515,-3.005395 14.2124,-3.766084 16.10937,-8.011999 1.89697,-4.245916 -2.64627,-11.977073 -8.88786,-17.927835 -6.24159,-5.950761 -14.18126,-10.120661 -22.81479,-11.984785 -8.63352,-1.864125 -17.96031,-1.422231 -25.770972,-2.84623 -7.810659,-1.423999 -14.104818,-4.713943 -19.46697,-3.911773 -5.362152,0.802169 -9.791661,5.696475 -11.0708,10.767075 -1.279138,5.0706 0.591983,10.316883 0.977638,13.660004 0.385656,3.343121 -0.714003,4.783198 -1.351449,7.786584 z"/><path style="fill:none;stroke:#000;stroke-width:.264583px;stroke-linecap:butt;stroke-linejoin:miter;stroke-opacity:1" id="path841" d="m 102.60474,38.945779 c -0.95687,0.628638 -1.73744,0.628638 -2.729615,1.899109 -0.992176,1.270471 -2.195595,3.811199 -0.921729,6.454832 1.273864,2.643633 5.024534,5.389906 9.830114,6.674251 4.80558,1.284345 10.66581,1.106941 14.21822,-1.233141 3.55241,-2.340082 4.79714,-6.842848 3.12187,-8.494045 -1.67528,-1.651197 -6.27063,-0.450562 -9.09003,-0.81169 -2.81939,-0.361128 -3.86269,-2.284334 -5.4341,-3.816812 -1.57142,-1.532479 -3.67099,-2.674006 -5.2877,-2.616206 -1.61671,0.0578 -2.75015,1.315064 -3.70703,1.943702 z"/><g id="g871" transform="matrix(0.529167,0,0,0.529167,62.249455,54.93412)" ns2:alignment="middle center" ns2:jacobian_sqrt=".529" ns2:pdfconverter="inkscape" ns2:preamble="/usr/share/inkscape/extensions/textext/default_packages.tex" ns2:scale="1.5" ns2:texconverter="pdflatex" ns2:text="$\gamma_0$" ns2:version="1.2.0"><defs id="id-8b83242b-a184-41a3-8557-44e37c64ad37"><g id="id-d1fd2d6b-0e13-45e8-9ecf-9f9bfb41f954"><symbol id="id-97c154e6-73e6-4555-b8e6-9c3abc7c6c64" overflow="visible"><path style="stroke:none;stroke-width:0" id="id-abb2759f-7c42-472d-92b7-2011080130e6"/></symbol><symbol id="id-52144842-7db9-4753-b191-1db74e8ebaf6" overflow="visible"><path style="stroke:none;stroke-width:0" id="id-048ea9e3-e99e-40c5-9c59-d2d6d5892c03" d="M 0.40625,-2.53125 C 0.796875,-3.671875 1.890625,-3.6875 2,-3.6875 c 1.5,0 1.609375,1.75 1.609375,2.53125 0,0.609375 -0.046875,0.78125 -0.125,0.984375 -0.21875,0.71875 -0.515625,1.875 -0.515625,2.140625 0,0.109375 0.046875,0.171875 0.125,0.171875 0.140625,0 0.21875,-0.21875 0.328125,-0.59375 C 3.65625,0.703125 3.75,0.140625 3.78125,-0.171875 c 0.03125,-0.125 0.046875,-0.25 0.09375,-0.390625 0.3125,-0.984375 0.953125,-2.46875 1.34375,-3.25 0.078125,-0.125 0.1875,-0.34375 0.1875,-0.390625 0,-0.09375 -0.09375,-0.09375 -0.109375,-0.09375 -0.03125,0 -0.09375,0 -0.125,0.0625 C 4.65625,-3.28125 4.25,-2.28125 3.859375,-1.28125 3.84375,-1.578125 3.84375,-2.34375 3.453125,-3.3125 3.203125,-3.921875 2.8125,-4.40625 2.125,-4.40625 c -1.25,0 -1.953125,1.515625 -1.953125,1.828125 0,0.09375 0.09375,0.09375 0.203125,0.09375 z m 0,0"/></symbol><symbol id="id-5cbd94a3-716c-40bd-ace5-e34eba7d283b" overflow="visible"><path style="stroke:none;stroke-width:0" id="id-21096f33-bcec-4e01-992f-fea16174eeb1"/></symbol><symbol id="id-4109585f-8b03-4aaa-ab22-85dc267198cb" overflow="visible"><path style="stroke:none;stroke-width:0" id="id-74b7ec9f-52f5-4658-a004-a90dc0ef261f" d="M 3.59375,-2.21875 C 3.59375,-2.984375 3.5,-3.546875 3.1875,-4.03125 2.96875,-4.34375 2.53125,-4.625 1.984375,-4.625 c -1.625,0 -1.625,1.90625 -1.625,2.40625 0,0.5 0,2.359375 1.625,2.359375 1.609375,0 1.609375,-1.859375 1.609375,-2.359375 z M 1.984375,-0.0625 c -0.328125,0 -0.75,-0.1875 -0.890625,-0.75 C 1,-1.21875 1,-1.796875 1,-2.3125 1,-2.828125 1,-3.359375 1.09375,-3.734375 1.25,-4.28125 1.6875,-4.4375 1.984375,-4.4375 c 0.375,0 0.734375,0.234375 0.859375,0.640625 0.109375,0.375 0.125,0.875 0.125,1.484375 0,0.515625 0,1.03125 -0.09375,1.46875 -0.140625,0.640625 -0.609375,0.78125 -0.890625,0.78125 z m 0,0"/></symbol></g></defs><g id="id-eaae203c-e7d4-480d-9c28-ade608e85311" transform="translate(-148.884,-130.359)"><g style="fill:#000;fill-opacity:1" id="id-91ef2bed-839a-4869-997e-52e73206f31c"><g id="g863" transform="translate(148.712,134.765)"><path style="stroke:none;stroke-width:0" id="id-0232ea12-2b68-48f1-8cd7-34d00bfee780" d="M 0.40625,-2.53125 C 0.796875,-3.671875 1.890625,-3.6875 2,-3.6875 c 1.5,0 1.609375,1.75 1.609375,2.53125 0,0.609375 -0.046875,0.78125 -0.125,0.984375 -0.21875,0.71875 -0.515625,1.875 -0.515625,2.140625 0,0.109375 0.046875,0.171875 0.125,0.171875 0.140625,0 0.21875,-0.21875 0.328125,-0.59375 C 3.65625,0.703125 3.75,0.140625 3.78125,-0.171875 c 0.03125,-0.125 0.046875,-0.25 0.09375,-0.390625 0.3125,-0.984375 0.953125,-2.46875 1.34375,-3.25 0.078125,-0.125 0.1875,-0.34375 0.1875,-0.390625 0,-0.09375 -0.09375,-0.09375 -0.109375,-0.09375 -0.03125,0 -0.09375,0 -0.125,0.0625 C 4.65625,-3.28125 4.25,-2.28125 3.859375,-1.28125 3.84375,-1.578125 3.84375,-2.34375 3.453125,-3.3125 3.203125,-3.921875 2.8125,-4.40625 2.125,-4.40625 c -1.25,0 -1.953125,1.515625 -1.953125,1.828125 0,0.09375 0.09375,0.09375 0.203125,0.09375 z m 0,0"/></g></g><g style="fill:#000;fill-opacity:1" id="id-91509d9a-c213-4f7e-87d0-611b28d882e9"><g id="g867" transform="translate(153.87,136.259)"><path style="stroke:none;stroke-width:0" id="id-e3acc8d4-58bb-4018-8823-9bef428be609" d="M 3.59375,-2.21875 C 3.59375,-2.984375 3.5,-3.546875 3.1875,-4.03125 2.96875,-4.34375 2.53125,-4.625 1.984375,-4.625 c -1.625,0 -1.625,1.90625 -1.625,2.40625 0,0.5 0,2.359375 1.625,2.359375 1.609375,0 1.609375,-1.859375 1.609375,-2.359375 z M 1.984375,-0.0625 c -0.328125,0 -0.75,-0.1875 -0.890625,-0.75 C 1,-1.21875 1,-1.796875 1,-2.3125 1,-2.828125 1,-3.359375 1.09375,-3.734375 1.25,-4.28125 1.6875,-4.4375 1.984375,-4.4375 c 0.375,0 0.734375,0.234375 0.859375,0.640625 0.109375,0.375 0.125,0.875 0.125,1.484375 0,0.515625 0,1.03125 -0.09375,1.46875 -0.140625,0.640625 -0.609375,0.78125 -0.890625,0.78125 z m 0,0"/></g></g></g></g><g id="g937" transform="matrix(0.529167,0,0,0.529167,125.87524,49.595764)" ns2:alignment="middle center" ns2:jacobian_sqrt=".529" ns2:pdfconverter="inkscape" ns2:preamble="/usr/share/inkscape/extensions/textext/default_packages.tex" ns2:scale="1.5" ns2:texconverter="pdflatex" ns2:text="$\gamma_1$" ns2:version="1.2.0"><defs id="id-2587bfe8-5a6e-4476-9f97-6c205fd3e5a4"><g id="id-45fd6d9f-c759-413b-bc33-996beaaed219"><symbol id="id-7d7c09f6-b3c6-4220-8066-cd96ddcbd9f8" overflow="visible"><path style="stroke:none;stroke-width:0" id="id-b4670802-6a54-484f-8b68-e352ae2b5aee"/></symbol><symbol id="id-84d10a4c-9d02-4042-8889-df3fc88feff6" overflow="visible"><path style="stroke:none;stroke-width:0" id="id-2fb7ef9d-ba31-4893-965a-f88d9c170168" d="M 0.40625,-2.53125 C 0.796875,-3.671875 1.890625,-3.6875 2,-3.6875 c 1.5,0 1.609375,1.75 1.609375,2.53125 0,0.609375 -0.046875,0.78125 -0.125,0.984375 -0.21875,0.71875 -0.515625,1.875 -0.515625,2.140625 0,0.109375 0.046875,0.171875 0.125,0.171875 0.140625,0 0.21875,-0.21875 0.328125,-0.59375 C 3.65625,0.703125 3.75,0.140625 3.78125,-0.171875 c 0.03125,-0.125 0.046875,-0.25 0.09375,-0.390625 0.3125,-0.984375 0.953125,-2.46875 1.34375,-3.25 0.078125,-0.125 0.1875,-0.34375 0.1875,-0.390625 0,-0.09375 -0.09375,-0.09375 -0.109375,-0.09375 -0.03125,0 -0.09375,0 -0.125,0.0625 C 4.65625,-3.28125 4.25,-2.28125 3.859375,-1.28125 3.84375,-1.578125 3.84375,-2.34375 3.453125,-3.3125 3.203125,-3.921875 2.8125,-4.40625 2.125,-4.40625 c -1.25,0 -1.953125,1.515625 -1.953125,1.828125 0,0.09375 0.09375,0.09375 0.203125,0.09375 z m 0,0"/></symbol><symbol id="id-8c7ee81c-f09c-40c0-aaea-77bb0661a533" overflow="visible"><path style="stroke:none;stroke-width:0" id="id-ad96619b-8cb9-4ffc-ac6c-fd9dd73f75d6"/></symbol><symbol id="id-73e719ef-0d29-461d-bd7f-acc456f07b22" overflow="visible"><path style="stroke:none;stroke-width:0" id="id-0fa2f918-81e2-43a1-ac83-22c9311682cc" d="m 2.328125,-4.4375 c 0,-0.1875 0,-0.1875 -0.203125,-0.1875 -0.453125,0.4375 -1.078125,0.4375 -1.359375,0.4375 v 0.25 c 0.15625,0 0.625,0 1,-0.1875 v 3.546875 c 0,0.234375 0,0.328125 -0.6875,0.328125 H 0.8125 V 0 c 0.125,0 0.984375,-0.03125 1.234375,-0.03125 0.21875,0 1.09375,0.03125 1.25,0.03125 V -0.25 H 3.03125 c -0.703125,0 -0.703125,-0.09375 -0.703125,-0.328125 z m 0,0"/></symbol></g></defs><g id="id-4157c3cf-a4f7-4411-89bb-d73472d8ff3e" transform="translate(-148.884,-130.359)"><g style="fill:#000;fill-opacity:1" id="id-6a123294-f57e-449a-bd36-c1dacc4710aa"><g id="g929" transform="translate(148.712,134.765)"><path style="stroke:none;stroke-width:0" id="id-6a54e0e3-bda8-4ca1-ba1a-ae5d091f5149" d="M 0.40625,-2.53125 C 0.796875,-3.671875 1.890625,-3.6875 2,-3.6875 c 1.5,0 1.609375,1.75 1.609375,2.53125 0,0.609375 -0.046875,0.78125 -0.125,0.984375 -0.21875,0.71875 -0.515625,1.875 -0.515625,2.140625 0,0.109375 0.046875,0.171875 0.125,0.171875 0.140625,0 0.21875,-0.21875 0.328125,-0.59375 C 3.65625,0.703125 3.75,0.140625 3.78125,-0.171875 c 0.03125,-0.125 0.046875,-0.25 0.09375,-0.390625 0.3125,-0.984375 0.953125,-2.46875 1.34375,-3.25 0.078125,-0.125 0.1875,-0.34375 0.1875,-0.390625 0,-0.09375 -0.09375,-0.09375 -0.109375,-0.09375 -0.03125,0 -0.09375,0 -0.125,0.0625 C 4.65625,-3.28125 4.25,-2.28125 3.859375,-1.28125 3.84375,-1.578125 3.84375,-2.34375 3.453125,-3.3125 3.203125,-3.921875 2.8125,-4.40625 2.125,-4.40625 c -1.25,0 -1.953125,1.515625 -1.953125,1.828125 0,0.09375 0.09375,0.09375 0.203125,0.09375 z m 0,0"/></g></g><g style="fill:#000;fill-opacity:1" id="id-b1e7f994-bc6c-41d3-b2e0-ca50bfed4cfb"><g id="g933" transform="translate(153.87,136.259)"><path style="stroke:none;stroke-width:0" id="id-8786b6cf-28d0-4924-823c-59b9e3c47c85" d="m 2.328125,-4.4375 c 0,-0.1875 0,-0.1875 -0.203125,-0.1875 -0.453125,0.4375 -1.078125,0.4375 -1.359375,0.4375 v 0.25 c 0.15625,0 0.625,0 1,-0.1875 v 3.546875 c 0,0.234375 0,0.328125 -0.6875,0.328125 H 0.8125 V 0 c 0.125,0 0.984375,-0.03125 1.234375,-0.03125 0.21875,0 1.09375,0.03125 1.25,0.03125 V -0.25 H 3.03125 c -0.703125,0 -0.703125,-0.09375 -0.703125,-0.328125 z m 0,0"/></g></g></g></g><path style="fill:none;stroke:#000;stroke-width:.26499999;stroke-linecap:butt;stroke-linejoin:miter;stroke-opacity:1;stroke-miterlimit:4;stroke-dasharray:.79499996,.26499999;stroke-dashoffset:0" id="path963" d="m 98.303983,36.573568 c -1.099,0.799015 -1.351067,0.980222 -1.781516,3.300807 -0.430449,2.320586 -1.039178,6.780111 0.408356,10.496352 1.447533,3.716241 4.950887,6.688972 10.726547,8.818945 5.77566,2.129972 13.82323,3.417274 19.2014,2.358923 5.37816,-1.058352 8.08698,-4.462238 8.48235,-8.096264 0.39538,-3.634025 -1.52284,-7.498254 -3.85042,-10.458329 -2.32758,-2.960076 -5.0645,-5.015745 -9.83208,-6.540599 -4.76758,-1.524854 -11.56548,-2.518628 -15.93761,-2.307138 -4.37213,0.211491 -6.318028,1.628288 -7.417027,2.427303 z"/><path style="fill:none;stroke:#000;stroke-width:.26458299;stroke-linecap:butt;stroke-linejoin:miter;stroke-opacity:1;stroke-miterlimit:4;stroke-dasharray:.79374896,.26458299;stroke-dashoffset:0" id="path967" d="m 91.062311,34.325308 c -1.005973,1.090392 -1.050517,1.326642 -1.346661,3.676337 -0.296143,2.349695 -0.843874,6.812634 -0.584241,11.185302 0.259633,4.372669 1.326492,8.654723 5.809617,11.591424 4.483125,2.936702 12.381944,4.528147 18.201514,5.300401 5.81958,0.772255 9.55963,0.725353 13.34782,-0.526133 3.7882,-1.251487 7.6245,-3.70742 9.73658,-6.931897 2.11208,-3.224477 2.49994,-7.217571 1.18608,-11.351917 -1.31387,-4.134346 -4.32957,-8.409753 -8.73487,-11.556846 -4.4053,-3.147093 -10.20001,-5.165517 -15.8775,-6.038409 -5.6775,-0.872892 -11.23739,-0.600103 -15.001218,0.50848 -3.763825,1.108583 -5.731148,3.052866 -6.737121,4.143258 z"/><path style="fill:none;stroke:#000;stroke-width:.264583;stroke-linecap:butt;stroke-linejoin:miter;stroke-miterlimit:4;stroke-dasharray:.793749,.264583;stroke-dashoffset:0;stroke-opacity:1" id="path971" d="m 82.686355,27.82013 c -1.278782,1.258607 -3.876418,3.850661 -5.466846,6.894608 -1.590427,3.043947 -2.173588,6.539434 -2.288388,10.037847 -0.114801,3.498413 0.238691,6.99947 1.207524,10.37319 0.968833,3.373721 2.55281,6.619878 6.146339,9.581418 3.59353,2.961541 9.196193,5.638457 15.396958,7.364175 6.200768,1.725719 12.999278,2.500275 18.365308,2.008801 5.36604,-0.491473 9.29948,-2.248834 13.24803,-4.558091 3.94856,-2.309256 7.91207,-5.170286 10.78769,-7.711512 2.87562,-2.541225 4.66327,-4.762574 5.40735,-7.30476 0.74409,-2.542185 0.44454,-5.40531 -1.78857,-8.473429 -2.23311,-3.068119 -6.39987,-6.340986 -10.07119,-8.898069 -3.67131,-2.557084 -6.84698,-4.398192 -10.26365,-5.946438 -3.41667,-1.548245 -7.07412,-2.803464 -10.51997,-3.629768 -3.44586,-0.826303 -6.67991,-1.223578 -10.5087,-1.664021 -3.828796,-0.440443 -8.252097,-0.924025 -11.560465,-0.829827 -3.308369,0.0942 -5.501511,0.766241 -6.464322,1.137055 -0.962812,0.370813 -0.695408,0.440248 -0.541872,0.437601 0.153536,-0.0026 0.193555,-0.07739 -1.085226,1.18122 z"/></g></svg>