<svg xmlns="http://www.w3.org/2000/svg" xmlns:svg="http://www.w3.org/2000/svg" id="svg2728" width="210mm" height="297mm" version="1.1" viewBox="0 0 210 297"><metadata id="metadata2725"/><g id="layer1"><ellipse style="fill:none;stroke:#000;stroke-width:.231669;stroke-opacity:1" id="path2730" cx="36.94" cy="125.147" rx="32.264" ry="31.96"/><ellipse style="fill:none;stroke:#000;stroke-width:.231669;stroke-opacity:1" id="path2730-9" cx="77.786" cy="114.851" rx="32.264" ry="31.96"/><ellipse style="fill:none;stroke:#000;stroke-width:.231669;stroke-opacity:1" id="path2730-9-6" cx="125.912" cy="124.481" rx="32.264" ry="31.96"/><ellipse style="fill:#000;fill-opacity:1;stroke:#000;stroke-width:.264999;stroke-opacity:1" id="path3323" cx="15.579" cy="138.43" rx="1.246" ry="1.242"/><ellipse style="fill:#000;fill-opacity:1;stroke:#000;stroke-width:.264999;stroke-opacity:1" id="path3323-4" cx="57.911" cy="119.232" rx="1.246" ry="1.242"/><ellipse style="fill:#000;fill-opacity:1;stroke:#000;stroke-width:.264999;stroke-opacity:1" id="path3323-4-3" cx="103.315" cy="119.328" rx="1.246" ry="1.242"/><ellipse style="fill:#000;fill-opacity:1;stroke:#000;stroke-width:.264999;stroke-opacity:1" id="path3323-4-3-3" cx="149.356" cy="137.882" rx="1.246" ry="1.242"/><path style="fill:none;stroke:#000;stroke-width:.264583px;stroke-linecap:butt;stroke-linejoin:miter;stroke-opacity:1" id="path3374" d="m 15.77634,137.61791 c 0.08344,-0.39706 0.166915,-0.79433 0.218256,-3.21033 0.05134,-2.416 0.0705,-6.85062 1.388124,-6.82137 1.31762,0.0293 3.933405,4.52222 6.167147,5.68046 2.233743,1.15824 4.08552,-1.01798 5.173435,-3.73417 1.087915,-2.7162 1.411925,-5.97243 3.110427,-6.52852 1.698502,-0.55608 4.771036,1.58796 6.827709,4.89907 2.056674,3.3111 3.097606,7.78895 4.820473,10.32101 1.722866,2.53206 4.127309,3.11846 6.005666,2.3287 1.878357,-0.78976 3.230881,-2.95561 3.86264,-5.05788 0.63176,-2.10227 0.542672,-4.14104 0.644209,-6.50376 0.101537,-2.36272 0.393725,-5.0492 1.23885,-6.87531 0.845125,-1.8261 2.243041,-2.79146 4.334037,-6.26435 2.090995,-3.47288 4.875042,-9.45319 9.029352,-13.2207 4.154311,-3.767512 9.67838,-5.321881 11.25333,0.63508 1.574951,5.95697 -0.799019,19.42449 2.292437,23.12027 3.091456,3.69578 11.647787,-2.37985 19.456128,-6.27821 7.80834,-3.89836 14.86775,-5.61902 17.48283,-0.49885 2.61507,5.12018 0.78594,17.08048 1.87416,19.63441 1.08823,2.55393 5.09372,-4.29833 8.52721,-5.177 3.4335,-0.87866 6.29458,4.21596 9.68043,5.71194 3.38586,1.49599 7.20483,-0.55711 11.06956,-2.63481"/><path style="fill:none;stroke:#f500ff;stroke-width:.264583px;stroke-linecap:butt;stroke-linejoin:miter;stroke-opacity:1" id="path3396" d="m 15.77634,137.61791 c 14.011145,-6.20583 27.996347,-12.40017 41.994332,-18.60017"/><path style="fill:none;stroke:#f500ff;stroke-width:.264583px;stroke-linecap:butt;stroke-linejoin:miter;stroke-opacity:1" id="path3419" d="m 57.770672,119.01774 c 15.048491,0.11878 30.168749,0.23814 45.252728,0.3572"/><path style="fill:none;stroke:#f500ff;stroke-width:.264583px;stroke-linecap:butt;stroke-linejoin:miter;stroke-opacity:1" id="path3423" d="m 103.0234,119.37494 c 15.73677,5.923 31.47321,11.84589 47.20935,17.76865"/></g></svg>