<svg xmlns="http://www.w3.org/2000/svg" xmlns:svg="http://www.w3.org/2000/svg" id="svg292" width="210mm" height="297mm" version="1.1" viewBox="0 0 210 297"><metadata id="metadata289"/><g id="layer1"><ellipse style="fill:none;stroke:#000;stroke-width:.178851;stroke-opacity:1" id="path302-3" cx="67.44" cy="44.84" rx="4.049" ry="4.067"/><path style="fill:none;stroke:#000;stroke-width:.264583px;stroke-linecap:butt;stroke-linejoin:miter;stroke-opacity:1" id="path1142" d="m 90.103974,59.325047 c -4.558082,0.494059 -9.298214,2.766058 -14.809152,3.855166 -5.510938,1.089108 -11.792594,0.995273 -16.2042,-0.438165 -4.411606,-1.433438 -6.952923,-4.206639 -6.581037,-8.033304 0.371885,-3.826664 3.657182,-8.706326 4.960998,-11.914283 1.303817,-3.207957 0.625934,-4.744311 -0.927009,-6.898 -1.552942,-2.153688 -3.980942,-4.924535 -2.403187,-8.21443 1.577755,-3.289895 7.161278,-7.098312 13.072585,-6.980227 5.911307,0.118085 12.149787,4.162349 18.885065,5.025378 6.735277,0.86303 13.967083,-1.45491 20.982743,-1.622233 7.01566,-0.167323 13.8146,1.81579 17.97595,5.368806 4.16135,3.553016 5.68512,8.675465 4.89271,13.11495 -0.79242,4.439484 -3.90081,8.19604 -3.82757,11.679199 0.0732,3.483159 3.32774,6.692484 3.12321,9.6978 -0.20453,3.005316 -3.8678,5.806742 -7.81292,9.03471 -3.94512,3.227968 -8.17184,6.882273 -12.66136,9.145219 -4.48953,2.262947 -9.241775,3.134454 -12.180412,2.109133 -2.938638,-1.02532 -4.063439,-3.947726 -2.623987,-8.073464 1.439452,-4.125739 5.443173,-9.454263 5.257286,-12.760434 -0.185887,-3.306172 -4.561631,-4.58988 -9.119713,-4.095821 z"/><path style="fill:none;stroke:#000;stroke-width:.264583px;stroke-linecap:butt;stroke-linejoin:miter;stroke-opacity:1" id="path1150" d="m 66.920869,44.71263 c 4.257753,-1.325554 8.515338,-2.651057 12.270606,-2.831525 3.755267,-0.180468 7.007938,0.783915 10.793064,-0.157555 3.785127,-0.941471 8.102722,-3.788564 11.395961,-3.493993 3.29324,0.29457 5.56181,3.730385 8.83983,7.446325 3.27802,3.71594 7.5652,7.711837 7.59663,11.700429 0.0314,3.988592 -4.19255,7.969901 -6.23745,10.705984 -2.0449,2.736082 -1.91067,4.226503 -2.29562,5.537012 -0.38496,1.310509 -1.28901,2.441278 -2.19305,3.572036"/><ellipse style="fill:none;stroke:#000;stroke-width:.178851;stroke-opacity:1" id="path302-3-8" cx="74.029" cy="43.378" rx="4.049" ry="4.067"/><ellipse style="fill:none;stroke:#000;stroke-width:.178851;stroke-opacity:1" id="path302-3-8-8" cx="80.591" cy="42.273" rx="4.049" ry="4.067"/><ellipse style="fill:none;stroke:#000;stroke-width:.178851;stroke-opacity:1" id="path302-3-8-8-3" cx="87.327" cy="41.902" rx="4.049" ry="4.067"/><ellipse style="fill:none;stroke:#000;stroke-width:.178851;stroke-opacity:1" id="path302-3-8-8-3-1" cx="94.024" cy="41.147" rx="4.049" ry="4.067"/><ellipse style="fill:none;stroke:#000;stroke-width:.178851;stroke-opacity:1" id="path302-3-8-8-3-1-8" cx="100.102" cy="39.353" rx="4.049" ry="4.067"/><ellipse style="fill:none;stroke:#000;stroke-width:.178851;stroke-opacity:1" id="path302-3-8-8-3-1-8-9" cx="106.263" cy="41.216" rx="4.049" ry="4.067"/><ellipse style="fill:none;stroke:#000;stroke-width:.178851;stroke-opacity:1" id="path302-3-8-8-3-1-8-9-6" cx="110.797" cy="46.277" rx="4.049" ry="4.067"/><ellipse style="fill:none;stroke:#000;stroke-width:.178851;stroke-opacity:1" id="path302-3-8-8-3-1-8-9-6-4" cx="114.872" cy="50.991" rx="4.049" ry="4.067"/><ellipse style="fill:none;stroke:#000;stroke-width:.178851;stroke-opacity:1" id="path302-3-8-8-3-1-8-9-6-4-3" cx="117.239" cy="57.408" rx="4.049" ry="4.067"/><ellipse style="fill:none;stroke:#000;stroke-width:.178851;stroke-opacity:1" id="path302-3-8-8-3-1-8-9-6-4-3-3" cx="115.525" cy="63.723" rx="4.049" ry="4.067"/><ellipse style="fill:none;stroke:#000;stroke-width:.178851;stroke-opacity:1" id="path302-3-8-8-3-1-8-9-6-4-3-3-3" cx="111.342" cy="69.506" rx="4.049" ry="4.067"/><ellipse style="fill:none;stroke:#000;stroke-width:.178851;stroke-opacity:1" id="path302-3-8-8-3-1-8-9-6-4-3-3-3-8" cx="108.168" cy="74.909" rx="4.049" ry="4.067"/></g></svg>