<svg xmlns="http://www.w3.org/2000/svg" xmlns:svg="http://www.w3.org/2000/svg" id="svg8" width="210mm" height="297mm" version="1.1" viewBox="0 0 210 297"><metadata id="metadata5"/><g id="layer1"><ellipse style="stroke-width:.264583;stroke-dasharray:.79375,.264583" id="path833" cx="48.324" cy="24.483" rx=".43" ry=".413"/><path style="fill:none;stroke:#000;stroke-width:.264583px;stroke-linecap:butt;stroke-linejoin:miter;stroke-opacity:1" id="path835" d="m 48.517569,24.969905 c 0.609032,2.202453 1.417153,4.944808 3.251298,6.431853 1.834146,1.487045 4.694011,1.719066 7.540834,2.565783 2.846824,0.846716 5.680404,2.307924 9.440843,2.696618 3.76044,0.388694 8.447592,-0.294933 11.730838,-1.958301 3.283247,-1.663368 5.162678,-4.306443 5.026199,-7.606611 -0.13648,-3.300168 -2.28903,-7.257484 -4.298534,-9.87783 -2.009504,-2.620345 -3.875978,-3.903483 -5.260921,-5.475301 -1.384943,-1.571818 -2.288132,-3.4323256 -4.38041,-3.9507014 -2.092278,-0.5183758 -5.373527,0.3057498 -7.525369,2.2550674 -2.151842,1.949317 -3.173931,5.02348 -5.219553,6.331665 -2.045623,1.308184 -5.114988,0.850461 -7.241421,1.066101 -2.126433,0.215641 -3.309568,1.104693 -3.696163,2.380691 -0.386594,1.275998 0.02333,2.938513 0.632359,5.140966 z"/><path style="fill:none;stroke:#000;stroke-width:.26499999;stroke-linecap:butt;stroke-linejoin:miter;stroke-opacity:1;stroke-miterlimit:4;stroke-dasharray:.79499996,.26499999;stroke-dashoffset:0" id="path839" d="m 69.439427,8.9824283 c -0.385293,0.00886 -0.580339,-0.064337 -1.248311,0.2518603 -0.667972,0.3161967 -1.808576,1.0219274 -2.879534,1.9334904 -1.070959,0.911563 -2.072124,2.028837 -2.837787,3.139794 -0.765664,1.110956 -1.295745,2.215432 -2.460375,2.899144 -1.16463,0.683713 -2.964003,0.946775 -4.637623,1.113954 -1.67362,0.167179 -3.221422,0.238447 -4.17091,0.789426 -0.949488,0.550979 -1.300311,1.581458 -1.278013,3.062633 0.0223,1.481175 0.41759,3.412796 0.897155,4.774434 0.479564,1.361637 1.04322,2.153228 2.288275,2.734783 1.245056,0.581555 3.171333,0.953287 4.973517,1.65889 1.802184,0.705603 3.480168,1.744896 5.491821,2.45737 2.011654,0.712474 4.356865,1.098236 6.479768,1.167212 2.122903,0.06898 4.02345,-0.178751 5.842908,-0.678022 1.819458,-0.499271 3.557821,-1.250026 4.859446,-2.173203 1.301624,-0.923177 2.166595,-2.018807 2.611038,-3.155539 0.444444,-1.136731 0.46832,-2.314718 0.0887,-3.621286 C 83.079879,24.030801 82.296612,22.595676 81.406356,21.120591 80.516099,19.645506 79.518879,18.13056 78.284441,16.598146 77.050003,15.065732 75.578369,13.515978 74.320752,12.212093 73.063134,10.908208 72.019599,9.8502701 71.209973,9.3665294 70.400346,8.8827887 69.824719,8.9735637 69.439427,8.9824283 Z"/><path style="fill:none;stroke:#000;stroke-width:.264583;stroke-linecap:butt;stroke-linejoin:miter;stroke-miterlimit:4;stroke-dasharray:.793749,.264583;stroke-dashoffset:0;stroke-opacity:1" id="path843" d="m 68.764529,13.158997 c -0.384753,0.09214 -0.384753,0.09214 -1.085534,0.478831 -0.700781,0.386689 -2.102375,1.160086 -3.190026,2.140274 -1.087651,0.980187 -1.861152,2.166964 -3.245372,2.873759 -1.384219,0.706795 -3.379263,0.933614 -5.001998,1.441359 -1.622736,0.507744 -2.872825,1.296385 -3.415381,2.325947 -0.542555,1.029563 -0.377525,2.299638 0.208266,3.34474 0.585791,1.045102 1.592046,1.865227 3.134008,2.621859 1.541961,0.756632 3.619496,1.449858 5.70532,2.202546 2.085823,0.752688 4.179807,1.564773 6.108414,2.011069 1.928608,0.446296 3.69177,0.526892 5.329537,0.311029 1.637768,-0.215863 3.150163,-0.7281 4.263456,-1.548514 1.113293,-0.820415 1.827619,-1.949072 2.30485,-3.142507 0.477231,-1.193435 0.717338,-2.451712 0.319359,-3.980539 -0.397978,-1.528827 -1.434222,-3.328212 -2.585157,-5.11666 -1.150935,-1.788449 -2.416521,-3.565838 -3.589984,-4.634685 -1.173462,-1.068847 -2.254816,-1.4289 -3.180256,-1.516892 -0.92544,-0.08799 -1.694748,0.09624 -2.079502,0.188384 z"/><path style="fill:none;stroke:#000;stroke-width:.26458299;stroke-linecap:butt;stroke-linejoin:miter;stroke-opacity:1;stroke-miterlimit:4;stroke-dasharray:.79374896,.26458299;stroke-dashoffset:0" id="path847" d="m 70.424297,16.955399 c -1.418505,0.321541 -2.951041,1.447806 -4.750171,2.395882 -1.79913,0.948076 -3.86487,1.717954 -5.251828,2.511742 -1.386959,0.793788 -2.094904,1.611365 -1.624031,2.807459 0.470873,1.196095 2.120228,2.770394 4.396135,3.70847 2.275907,0.938077 5.178204,1.24012 7.486887,1.050435 2.308682,-0.189686 4.023774,-0.870993 4.892326,-2.029736 0.868552,-1.158743 0.890668,-2.795157 0.562528,-4.508033 -0.32814,-1.712876 -1.006634,-3.502167 -1.997902,-4.638452 -0.991268,-1.136285 -2.295439,-1.619308 -3.713944,-1.297767 z"/><path style="fill:none;stroke:#000;stroke-width:.26458299;stroke-linecap:butt;stroke-linejoin:miter;stroke-opacity:1;stroke-miterlimit:4;stroke-dasharray:.79374896,.26458299;stroke-dashoffset:0" id="path851" d="m 69.824113,20.030654 c -0.261082,0.242662 -0.479276,0.343081 -1.685249,0.860084 -1.205974,0.517003 -3.399648,1.450553 -4.191697,2.479476 -0.792048,1.028922 -0.182493,2.152784 1.296737,2.993236 1.479231,0.840451 3.827892,1.39769 5.606936,0.915142 1.779045,-0.482547 2.98871,-2.004793 2.867711,-3.554745 -0.121,-1.549952 -1.572909,-3.12776 -2.451078,-3.724301 -0.878169,-0.596541 -1.182278,-0.211554 -1.44336,0.03111 z"/><path style="fill:none;stroke:#000;stroke-width:.26458299;stroke-linecap:butt;stroke-linejoin:miter;stroke-opacity:1;stroke-miterlimit:4;stroke-dasharray:.79374896,.26458299;stroke-dashoffset:0" id="path855" d="m 69.924477,21.764151 c -1.107937,0.05546 -2.505821,0.826066 -3.137361,1.610312 -0.63154,0.784247 -0.4967,1.581751 0.346479,2.030149 0.843178,0.448398 2.394401,0.547952 3.434655,0.09362 1.040255,-0.454333 1.569821,-1.462594 1.425877,-2.296373 -0.143943,-0.83378 -0.961714,-1.493168 -2.06965,-1.437708 z"/><ellipse style="stroke-width:.264583;stroke-miterlimit:4;stroke-dasharray:.79375,.264583;stroke-dashoffset:0" id="path863" cx="69.385" cy="23.914" rx=".416" ry=".406"/></g></svg>