<?xml version="1.0" encoding="UTF-8" standalone="no"?>
<svg
   xmlns:dc="http://purl.org/dc/elements/1.1/"
   xmlns:cc="http://creativecommons.org/ns#"
   xmlns:rdf="http://www.w3.org/1999/02/22-rdf-syntax-ns#"
   xmlns:svg="http://www.w3.org/2000/svg"
   xmlns="http://www.w3.org/2000/svg"
   xmlns:sodipodi="http://sodipodi.sourceforge.net/DTD/sodipodi-0.dtd"
   xmlns:inkscape="http://www.inkscape.org/namespaces/inkscape"
   width="210mm"
   height="297mm"
   viewBox="0 0 210 297"
   version="1.1"
   id="svg8"
   inkscape:version="1.0.1 (3bc2e813f5, 2020-09-07)"
   sodipodi:docname="односвязно.svg">
  <defs
     id="defs2">
    <inkscape:path-effect
       effect="bspline"
       id="path-effect861"
       is_visible="true"
       lpeversion="1"
       weight="33.333333"
       steps="2"
       helper_size="0"
       apply_no_weight="true"
       apply_with_weight="true"
       only_selected="false" />
    <inkscape:path-effect
       effect="bspline"
       id="path-effect857"
       is_visible="true"
       lpeversion="1"
       weight="33.333333"
       steps="2"
       helper_size="0"
       apply_no_weight="true"
       apply_with_weight="true"
       only_selected="false" />
    <inkscape:path-effect
       effect="bspline"
       id="path-effect853"
       is_visible="true"
       lpeversion="1"
       weight="33.333333"
       steps="2"
       helper_size="0"
       apply_no_weight="true"
       apply_with_weight="true"
       only_selected="false" />
    <inkscape:path-effect
       effect="bspline"
       id="path-effect849"
       is_visible="true"
       lpeversion="1"
       weight="33.333333"
       steps="2"
       helper_size="0"
       apply_no_weight="true"
       apply_with_weight="true"
       only_selected="false" />
    <inkscape:path-effect
       effect="bspline"
       id="path-effect845"
       is_visible="true"
       lpeversion="1"
       weight="33.333333"
       steps="2"
       helper_size="0"
       apply_no_weight="true"
       apply_with_weight="true"
       only_selected="false" />
    <inkscape:path-effect
       effect="bspline"
       id="path-effect841"
       is_visible="true"
       lpeversion="1"
       weight="33.333333"
       steps="2"
       helper_size="0"
       apply_no_weight="true"
       apply_with_weight="true"
       only_selected="false" />
    <inkscape:path-effect
       effect="bspline"
       id="path-effect837"
       is_visible="true"
       lpeversion="1"
       weight="33.333333"
       steps="2"
       helper_size="0"
       apply_no_weight="true"
       apply_with_weight="true"
       only_selected="false" />
  </defs>
  <sodipodi:namedview
     id="base"
     pagecolor="#ffffff"
     bordercolor="#666666"
     borderopacity="1.0"
     inkscape:pageopacity="0.0"
     inkscape:pageshadow="2"
     inkscape:zoom="2.8"
     inkscape:cx="351.15259"
     inkscape:cy="130.87011"
     inkscape:document-units="mm"
     inkscape:current-layer="layer1"
     inkscape:document-rotation="0"
     showgrid="false"
     inkscape:object-nodes="false"
     inkscape:window-width="3416"
     inkscape:window-height="1385"
     inkscape:window-x="1932"
     inkscape:window-y="43"
     inkscape:window-maximized="0" />
  <metadata
     id="metadata5">
    <rdf:RDF>
      <cc:Work
         rdf:about="">
        <dc:format>image/svg+xml</dc:format>
        <dc:type
           rdf:resource="http://purl.org/dc/dcmitype/StillImage" />
        <dc:title></dc:title>
      </cc:Work>
    </rdf:RDF>
  </metadata>
  <g
     inkscape:label="Layer 1"
     inkscape:groupmode="layer"
     id="layer1">
    <ellipse
       style="stroke-width:0.264583;stroke-dasharray:0.79375, 0.264583"
       id="path833"
       cx="48.324165"
       cy="24.483322"
       rx="0.4301025"
       ry="0.41307408" />
    <path
       style="fill:none;stroke:#000000;stroke-width:0.264583px;stroke-linecap:butt;stroke-linejoin:miter;stroke-opacity:1"
       d="m 48.517569,24.969905 c 0.609032,2.202453 1.417153,4.944808 3.251298,6.431853 1.834146,1.487045 4.694011,1.719066 7.540834,2.565783 2.846824,0.846716 5.680404,2.307924 9.440843,2.696618 3.76044,0.388694 8.447592,-0.294933 11.730838,-1.958301 3.283247,-1.663368 5.162678,-4.306443 5.026199,-7.606611 -0.13648,-3.300168 -2.28903,-7.257484 -4.298534,-9.87783 -2.009504,-2.620345 -3.875978,-3.903483 -5.260921,-5.475301 -1.384943,-1.571818 -2.288132,-3.4323256 -4.38041,-3.9507014 -2.092278,-0.5183758 -5.373527,0.3057498 -7.525369,2.2550674 -2.151842,1.949317 -3.173931,5.02348 -5.219553,6.331665 -2.045623,1.308184 -5.114988,0.850461 -7.241421,1.066101 -2.126433,0.215641 -3.309568,1.104693 -3.696163,2.380691 -0.386594,1.275998 0.02333,2.938513 0.632359,5.140966 z"
       id="path835"
       inkscape:path-effect="#path-effect837"
       inkscape:original-d="m 48.318388,24.42969 c 0.808384,2.742618 1.616506,5.484972 2.424361,8.22706 2.860244,0.232297 5.720109,0.464315 8.579765,0.696077 2.833958,1.461532 5.667539,2.922738 8.500912,4.383712 4.687601,-0.68339 9.374753,-1.367015 14.061733,-2.050921 1.87977,-2.642915 3.759203,-5.285988 5.638406,-7.92938 C 85.371193,23.799029 83.218643,19.841713 81.065787,15.884052 79.199504,14.601128 77.33303,13.31799 75.466254,12.034562 74.563295,10.174244 73.660105,8.3137365 72.756632,6.452927 69.475516,7.2773501 66.194267,8.1014756 62.912688,8.9253532 61.890822,11.999904 60.868734,15.074068 59.84636,18.148028 c -3.069222,-0.457477 -6.138587,-0.9152 -9.208278,-1.373197 -1.18292,0.889353 -2.366055,1.778406 -3.54948,2.667213 0.410202,1.662847 0.820121,3.325362 1.229786,4.987646 z" />
    <path
       style="fill:none;stroke:#000000;stroke-width:0.26499999;stroke-linecap:butt;stroke-linejoin:miter;stroke-opacity:1;stroke-miterlimit:4;stroke-dasharray:0.79499996,0.26499999;stroke-dashoffset:0"
       d="m 69.439427,8.9824283 c -0.385293,0.00886 -0.580339,-0.064337 -1.248311,0.2518603 -0.667972,0.3161967 -1.808576,1.0219274 -2.879534,1.9334904 -1.070959,0.911563 -2.072124,2.028837 -2.837787,3.139794 -0.765664,1.110956 -1.295745,2.215432 -2.460375,2.899144 -1.16463,0.683713 -2.964003,0.946775 -4.637623,1.113954 -1.67362,0.167179 -3.221422,0.238447 -4.17091,0.789426 -0.949488,0.550979 -1.300311,1.581458 -1.278013,3.062633 0.0223,1.481175 0.41759,3.412796 0.897155,4.774434 0.479564,1.361637 1.04322,2.153228 2.288275,2.734783 1.245056,0.581555 3.171333,0.953287 4.973517,1.65889 1.802184,0.705603 3.480168,1.744896 5.491821,2.45737 2.011654,0.712474 4.356865,1.098236 6.479768,1.167212 2.122903,0.06898 4.02345,-0.178751 5.842908,-0.678022 1.819458,-0.499271 3.557821,-1.250026 4.859446,-2.173203 1.301624,-0.923177 2.166595,-2.018807 2.611038,-3.155539 0.444444,-1.136731 0.46832,-2.314718 0.0887,-3.621286 C 83.079879,24.030801 82.296612,22.595676 81.406356,21.120591 80.516099,19.645506 79.518879,18.13056 78.284441,16.598146 77.050003,15.065732 75.578369,13.515978 74.320752,12.212093 73.063134,10.908208 72.019599,9.8502701 71.209973,9.3665294 70.400346,8.8827887 69.824719,8.9735637 69.439427,8.9824283 Z"
       id="path839"
       inkscape:path-effect="#path-effect841"
       inkscape:original-d="M 69.248863,9.0643749 C 69.05408,8.991438 68.859034,8.9182365 68.663721,8.8447702 c -1.140386,0.7060244 -2.280989,1.4117558 -3.42188,2.1172368 -1.00094,1.117584 -2.002104,2.234859 -3.003555,3.351892 -0.529836,1.104783 -1.059916,2.209259 -1.590273,3.313491 -1.79918,0.263337 -3.598553,0.526399 -5.398225,0.789202 -1.547598,0.07153 -3.0954,0.142802 -4.643498,0.213806 -0.350573,1.030786 -0.701395,2.061266 -1.052491,3.091502 0.395576,1.931963 0.790868,3.863585 1.185904,5.794981 0.563941,0.791884 1.127596,1.583475 1.690998,2.374815 1.926619,0.372012 3.852896,0.743744 5.778947,1.115219 1.678312,1.039598 3.356295,2.078892 5.034047,3.11794 2.345565,0.386043 4.690776,0.771805 7.035768,1.157308 1.900888,-0.247472 3.801435,-0.495202 5.701755,-0.743198 1.738696,-0.75052 3.477059,-1.501275 5.215191,-2.252308 0.86527,-1.09541 1.73024,-2.191041 2.594965,-3.286956 0.02413,-1.177772 0.04802,-2.355758 0.07163,-3.534034 -0.783031,-1.434918 -1.566299,-2.870042 -2.349846,-4.30546 C 80.516163,19.645464 79.518943,18.130518 78.521437,16.615276 77.05001,15.065725 75.578376,13.515972 74.106449,11.965923 73.063136,10.908207 72.019601,9.8502683 70.97578,8.792044 70.400393,8.8830874 69.824766,8.9738625 69.248863,9.0643749 Z" />
    <path
       style="fill:none;stroke:#000000;stroke-width:0.264583;stroke-linecap:butt;stroke-linejoin:miter;stroke-miterlimit:4;stroke-dasharray:0.793749, 0.264583;stroke-dashoffset:0;stroke-opacity:1"
       d="m 68.764529,13.158997 c -0.384753,0.09214 -0.384753,0.09214 -1.085534,0.478831 -0.700781,0.386689 -2.102375,1.160086 -3.190026,2.140274 -1.087651,0.980187 -1.861152,2.166964 -3.245372,2.873759 -1.384219,0.706795 -3.379263,0.933614 -5.001998,1.441359 -1.622736,0.507744 -2.872825,1.296385 -3.415381,2.325947 -0.542555,1.029563 -0.377525,2.299638 0.208266,3.34474 0.585791,1.045102 1.592046,1.865227 3.134008,2.621859 1.541961,0.756632 3.619496,1.449858 5.70532,2.202546 2.085823,0.752688 4.179807,1.564773 6.108414,2.011069 1.928608,0.446296 3.69177,0.526892 5.329537,0.311029 1.637768,-0.215863 3.150163,-0.7281 4.263456,-1.548514 1.113293,-0.820415 1.827619,-1.949072 2.30485,-3.142507 0.477231,-1.193435 0.717338,-2.451712 0.319359,-3.980539 -0.397978,-1.528827 -1.434222,-3.328212 -2.585157,-5.11666 -1.150935,-1.788449 -2.416521,-3.565838 -3.589984,-4.634685 -1.173462,-1.068847 -2.254816,-1.4289 -3.180256,-1.516892 -0.92544,-0.08799 -1.694748,0.09624 -2.079502,0.188384 z"
       id="path843"
       inkscape:path-effect="#path-effect845"
       inkscape:original-d="m 68.379776,13.251138 c 2.64e-4,2.64e-4 2.64e-4,2.64e-4 0,0 -1.401388,0.773694 -2.802982,1.547091 -4.20487,2.32024 -0.773282,1.187111 -1.546782,2.373888 -2.320594,3.560471 -1.994901,0.227097 -3.989945,0.453917 -5.985376,0.680485 -1.249878,0.788939 -2.499967,1.57758 -3.750349,2.365974 0.165304,1.270392 0.330333,2.540468 0.495102,3.810306 1.006562,0.820424 2.012818,1.640548 3.018827,2.460425 2.077884,0.693518 4.155419,1.386745 6.232731,2.079718 2.094333,0.812385 4.188317,1.62447 6.282079,2.436307 1.763496,0.08087 3.526658,0.161462 5.28959,0.241795 1.512723,-0.511993 3.025118,-1.024231 4.537284,-1.536745 0.714621,-1.128437 1.428948,-2.257094 2.143024,-3.38604 0.240382,-1.258062 0.480486,-2.516339 0.720333,-3.774905 -1.036023,-1.799194 -2.072266,-3.59858 -3.108798,-5.398267 -1.265373,-1.777196 -2.530959,-3.554586 -3.796834,-5.332276 -1.081153,-0.35981 -2.162507,-0.719862 -3.244189,-1.080201 -0.769071,0.184506 -1.538379,0.368741 -2.30796,0.552713 z"
       sodipodi:nodetypes="cccccccccccccccccc" />
    <path
       style="fill:none;stroke:#000000;stroke-width:0.26458299;stroke-linecap:butt;stroke-linejoin:miter;stroke-opacity:1;stroke-miterlimit:4;stroke-dasharray:0.79374896,0.26458299;stroke-dashoffset:0"
       d="m 70.424297,16.955399 c -1.418505,0.321541 -2.951041,1.447806 -4.750171,2.395882 -1.79913,0.948076 -3.86487,1.717954 -5.251828,2.511742 -1.386959,0.793788 -2.094904,1.611365 -1.624031,2.807459 0.470873,1.196095 2.120228,2.770394 4.396135,3.70847 2.275907,0.938077 5.178204,1.24012 7.486887,1.050435 2.308682,-0.189686 4.023774,-0.870993 4.892326,-2.029736 0.868552,-1.158743 0.890668,-2.795157 0.562528,-4.508033 -0.32814,-1.712876 -1.006634,-3.502167 -1.997902,-4.638452 -0.991268,-1.136285 -2.295439,-1.619308 -3.713944,-1.297767 z"
       id="path847"
       inkscape:path-effect="#path-effect849"
       inkscape:original-d="m 70.538284,16.150708 c -1.532274,1.126529 -3.064809,2.252795 -4.597612,3.378796 -2.065557,0.770172 -4.131297,1.540049 -6.197341,2.309677 -0.70771,0.817874 -1.415655,1.635451 -2.123879,2.452779 1.649682,1.574624 3.299037,3.148922 4.948156,4.722984 2.902677,0.30232 5.804974,0.604363 8.707064,0.906147 1.715426,-0.681069 3.430519,-1.362376 5.145381,-2.043964 0.02238,-1.636215 0.0445,-3.272629 0.06635,-4.909341 -0.678257,-1.789098 -1.356749,-3.57839 -2.035522,-5.367981 -1.303962,-0.482778 -2.608133,-0.965801 -3.912597,-1.449097 z" />
    <path
       style="fill:none;stroke:#000000;stroke-width:0.26458299;stroke-linecap:butt;stroke-linejoin:miter;stroke-opacity:1;stroke-miterlimit:4;stroke-dasharray:0.79374896,0.26458299;stroke-dashoffset:0"
       d="m 69.824113,20.030654 c -0.261082,0.242662 -0.479276,0.343081 -1.685249,0.860084 -1.205974,0.517003 -3.399648,1.450553 -4.191697,2.479476 -0.792048,1.028922 -0.182493,2.152784 1.296737,2.993236 1.479231,0.840451 3.827892,1.39769 5.606936,0.915142 1.779045,-0.482547 2.98871,-2.004793 2.867711,-3.554745 -0.121,-1.549952 -1.572909,-3.12776 -2.451078,-3.724301 -0.878169,-0.596541 -1.182278,-0.211554 -1.44336,0.03111 z"
       id="path851"
       inkscape:path-effect="#path-effect853"
       inkscape:original-d="m 69.781107,20.172951 c -0.217929,0.100683 -0.436123,0.201102 -0.654582,0.301257 -2.193499,0.933852 -4.387173,1.867403 -6.581156,2.800707 0.609844,1.12417 1.219399,2.248032 1.8287,3.371651 2.349021,0.557524 4.697682,1.114763 7.046129,1.671751 1.209977,-1.522042 2.419644,-3.044286 3.629067,-4.566825 -1.451702,-1.577608 -2.903611,-3.155416 -4.355814,-4.733521 -0.303855,0.385265 -0.607965,0.770251 -0.912344,1.15498 z" />
    <path
       style="fill:none;stroke:#000000;stroke-width:0.26458299;stroke-linecap:butt;stroke-linejoin:miter;stroke-opacity:1;stroke-miterlimit:4;stroke-dasharray:0.79374896,0.26458299;stroke-dashoffset:0"
       d="m 69.924477,21.764151 c -1.107937,0.05546 -2.505821,0.826066 -3.137361,1.610312 -0.63154,0.784247 -0.4967,1.581751 0.346479,2.030149 0.843178,0.448398 2.394401,0.547952 3.434655,0.09362 1.040255,-0.454333 1.569821,-1.462594 1.425877,-2.296373 -0.143943,-0.83378 -0.961714,-1.493168 -2.06965,-1.437708 z"
       id="path855"
       inkscape:path-effect="#path-effect857"
       inkscape:original-d="m 70.214336,21.049056 c -1.397622,0.770871 -2.795506,1.541476 -4.193657,2.311817 0.13511,0.797801 0.269952,1.595305 0.40453,2.392561 1.551548,0.09982 3.102771,0.199377 4.653761,0.298668 0.529852,-1.008036 1.059418,-2.016297 1.588728,-3.024842 -0.817539,-0.65915 -1.63531,-1.318538 -2.453362,-1.978204 z" />
    <ellipse
       style="stroke-width:0.264583;stroke-miterlimit:4;stroke-dasharray:0.79375, 0.264583;stroke-dashoffset:0"
       id="path863"
       cx="69.384644"
       cy="23.914345"
       rx="0.41568384"
       ry="0.40631458" />
  </g>
</svg>
