<svg xmlns="http://www.w3.org/2000/svg" xmlns:ns1="http://www.iki.fi/pav/software/textext/" xmlns:svg="http://www.w3.org/2000/svg" id="svg8" width="210mm" height="297mm" version="1.1" viewBox="0 0 210 297"><metadata id="metadata5"/><g id="layer1"><path style="fill:none;stroke:#000;stroke-width:.264583px;stroke-linecap:butt;stroke-linejoin:miter;stroke-opacity:1" id="path833" d="m 80.916571,91.224993 c 17.122465,0 34.244659,0 51.366599,0"/><path style="fill:none;stroke:#000;stroke-width:.264583px;stroke-linecap:butt;stroke-linejoin:miter;stroke-opacity:1" id="path837" d="M 81.049777,91.224993 C 80.967569,81.906051 80.885346,72.585391 80.803127,63.265192"/><path style="fill:none;stroke:#000;stroke-width:.265;stroke-linecap:butt;stroke-linejoin:miter;stroke-miterlimit:4;stroke-dasharray:.795,.265;stroke-dashoffset:0;stroke-opacity:1" id="path841" d="m 80.672375,63.265192 c 17.236716,0.0019 34.496275,0.0038 51.744005,0.0057"/><path style="fill:none;stroke:#000;stroke-width:.264583;stroke-linecap:butt;stroke-linejoin:miter;stroke-miterlimit:4;stroke-dasharray:.793749,.264583;stroke-dashoffset:0;stroke-opacity:1" id="path845" d="m 132.41912,91.355666 c -0.001,-9.404255 -0.002,-18.808778 -0.003,-28.213564"/><g id="g871" transform="matrix(0.352778,0,0,0.352778,78.917331,91.395086)" ns1:alignment="middle center" ns1:jacobian_sqrt=".353" ns1:pdfconverter="inkscape" ns1:preamble="/usr/share/inkscape/extensions/textext/default_packages.tex" ns1:scale="1" ns1:texconverter="pdflatex" ns1:text="$a$" ns1:version="1.2.0"><defs id="id-9d8c5ef0-bde9-4271-8738-9f0fa2056657"><g id="id-6d55564a-b07a-4d6e-b877-a22fec51db91"><symbol id="id-f6adacdb-dd3e-4a0a-948d-34a2c0242edc" overflow="visible"><path style="stroke:none;stroke-width:0" id="id-24772553-a044-4b28-991d-5c013b5b0cd3"/></symbol><symbol id="id-a7ce8259-17f7-441a-b32f-84cf6b05b9ae" overflow="visible"><path style="stroke:none;stroke-width:0" id="id-c75e59ff-b5f1-41c7-af2e-0c69c6191dc3" d="M 3.71875,-3.765625 C 3.53125,-4.140625 3.25,-4.40625 2.796875,-4.40625 c -1.15625,0 -2.390625,1.46875 -2.390625,2.921875 0,0.9375 0.546875,1.59375 1.3125,1.59375 0.203125,0 0.703125,-0.046875 1.296875,-0.75 0.078125,0.421875 0.4375,0.75 0.90625,0.75 0.359375,0 0.578125,-0.234375 0.75,-0.546875 0.15625,-0.359375 0.296875,-0.96875 0.296875,-0.984375 0,-0.109375 -0.09375,-0.109375 -0.125,-0.109375 -0.09375,0 -0.109375,0.046875 -0.140625,0.1875 -0.171875,0.640625 -0.34375,1.234375 -0.75,1.234375 -0.28125,0 -0.296875,-0.265625 -0.296875,-0.453125 0,-0.21875 0.015625,-0.3125 0.125,-0.75 C 3.890625,-1.71875 3.90625,-1.828125 4,-2.203125 L 4.359375,-3.59375 c 0.0625,-0.28125 0.0625,-0.296875 0.0625,-0.34375 0,-0.171875 -0.109375,-0.265625 -0.28125,-0.265625 -0.25,0 -0.390625,0.21875 -0.421875,0.4375 z M 3.078125,-1.1875 C 3.015625,-1 3.015625,-0.984375 2.875,-0.8125 2.4375,-0.265625 2.03125,-0.109375 1.75,-0.109375 c -0.5,0 -0.640625,-0.546875 -0.640625,-0.9375 0,-0.5 0.3125,-1.71875 0.546875,-2.1875 0.3125,-0.578125 0.75,-0.953125 1.15625,-0.953125 0.640625,0 0.78125,0.8125 0.78125,0.875 0,0.0625 -0.015625,0.125 -0.03125,0.171875 z m 0,0"/></symbol></g></defs><g id="id-6e666f8d-e7a4-4098-8656-ad08126bfcc3" transform="translate(-149.118,-130.359)"><g style="fill:#000;fill-opacity:1" id="id-20fa7af9-358f-48b3-9ff5-0e52b3a514b9"><g id="g867" transform="translate(148.712,134.765)"><path style="stroke:none;stroke-width:0" id="id-616d1122-2742-46a4-8e79-cd838951a0b8" d="M 3.71875,-3.765625 C 3.53125,-4.140625 3.25,-4.40625 2.796875,-4.40625 c -1.15625,0 -2.390625,1.46875 -2.390625,2.921875 0,0.9375 0.546875,1.59375 1.3125,1.59375 0.203125,0 0.703125,-0.046875 1.296875,-0.75 0.078125,0.421875 0.4375,0.75 0.90625,0.75 0.359375,0 0.578125,-0.234375 0.75,-0.546875 0.15625,-0.359375 0.296875,-0.96875 0.296875,-0.984375 0,-0.109375 -0.09375,-0.109375 -0.125,-0.109375 -0.09375,0 -0.109375,0.046875 -0.140625,0.1875 -0.171875,0.640625 -0.34375,1.234375 -0.75,1.234375 -0.28125,0 -0.296875,-0.265625 -0.296875,-0.453125 0,-0.21875 0.015625,-0.3125 0.125,-0.75 C 3.890625,-1.71875 3.90625,-1.828125 4,-2.203125 L 4.359375,-3.59375 c 0.0625,-0.28125 0.0625,-0.296875 0.0625,-0.34375 0,-0.171875 -0.109375,-0.265625 -0.28125,-0.265625 -0.25,0 -0.390625,0.21875 -0.421875,0.4375 z M 3.078125,-1.1875 C 3.015625,-1 3.015625,-0.984375 2.875,-0.8125 2.4375,-0.265625 2.03125,-0.109375 1.75,-0.109375 c -0.5,0 -0.640625,-0.546875 -0.640625,-0.9375 0,-0.5 0.3125,-1.71875 0.546875,-2.1875 0.3125,-0.578125 0.75,-0.953125 1.15625,-0.953125 0.640625,0 0.78125,0.8125 0.78125,0.875 0,0.0625 -0.015625,0.125 -0.03125,0.171875 z m 0,0"/></g></g></g></g><g id="g919" transform="matrix(0.352778,0,0,0.352778,133.06849,60.426188)" ns1:alignment="middle center" ns1:jacobian_sqrt=".353" ns1:pdfconverter="inkscape" ns1:preamble="/usr/share/inkscape/extensions/textext/default_packages.tex" ns1:scale="1" ns1:texconverter="pdflatex" ns1:text="$b$" ns1:version="1.2.0"><defs id="id-d2973536-3cdc-4dd2-ae58-76e6bcc8f2c4"><g id="id-a2e84dba-9b49-46f4-b4ce-9e6a69a9a5b2"><symbol id="id-fcd25bd0-1d62-46d3-a2f9-e0644ec78f85" overflow="visible"><path style="stroke:none;stroke-width:0" id="id-a3e6bb7d-e36b-409d-aabd-6fa6cd44077c"/></symbol><symbol id="id-caaa6476-506f-4e8f-921d-135fb882176b" overflow="visible"><path style="stroke:none;stroke-width:0" id="id-d3039141-3032-4731-ba67-0dd2a36fb097" d="m 2.375,-6.8125 c 0,0 0,-0.109375 -0.125,-0.109375 -0.21875,0 -0.953125,0.078125 -1.21875,0.109375 -0.078125,0 -0.1875,0.015625 -0.1875,0.1875 0,0.125 0.09375,0.125 0.25,0.125 0.46875,0 0.484375,0.0625 0.484375,0.171875 0,0.0625 -0.078125,0.40625 -0.125,0.609375 l -0.828125,3.25 c -0.109375,0.5 -0.15625,0.671875 -0.15625,1.015625 0,0.9375 0.53125,1.5625 1.265625,1.5625 1.171875,0 2.40625,-1.484375 2.40625,-2.921875 0,-0.90625 -0.53125,-1.59375 -1.328125,-1.59375 -0.453125,0 -0.875,0.296875 -1.171875,0.59375 z M 1.453125,-3.046875 C 1.5,-3.265625 1.5,-3.28125 1.59375,-3.390625 2.078125,-4.03125 2.53125,-4.1875 2.796875,-4.1875 c 0.359375,0 0.625,0.296875 0.625,0.9375 0,0.59375 -0.328125,1.734375 -0.515625,2.109375 -0.328125,0.671875 -0.78125,1.03125 -1.171875,1.03125 -0.34375,0 -0.671875,-0.265625 -0.671875,-1 0,-0.203125 0,-0.390625 0.15625,-1.015625 z m 0,0"/></symbol></g></defs><g id="id-2c7d02cd-a424-4dc5-89b2-c7bcc060dd1f" transform="translate(-149.181,-127.843)"><g style="fill:#000;fill-opacity:1" id="id-0acaaaeb-de21-42a5-aba3-4645479e5f1f"><g id="g915" transform="translate(148.712,134.765)"><path style="stroke:none;stroke-width:0" id="id-8c963801-7d40-4d63-ad58-86d2a350d2b9" d="m 2.375,-6.8125 c 0,0 0,-0.109375 -0.125,-0.109375 -0.21875,0 -0.953125,0.078125 -1.21875,0.109375 -0.078125,0 -0.1875,0.015625 -0.1875,0.1875 0,0.125 0.09375,0.125 0.25,0.125 0.46875,0 0.484375,0.0625 0.484375,0.171875 0,0.0625 -0.078125,0.40625 -0.125,0.609375 l -0.828125,3.25 c -0.109375,0.5 -0.15625,0.671875 -0.15625,1.015625 0,0.9375 0.53125,1.5625 1.265625,1.5625 1.171875,0 2.40625,-1.484375 2.40625,-2.921875 0,-0.90625 -0.53125,-1.59375 -1.328125,-1.59375 -0.453125,0 -0.875,0.296875 -1.171875,0.59375 z M 1.453125,-3.046875 C 1.5,-3.265625 1.5,-3.28125 1.59375,-3.390625 2.078125,-4.03125 2.53125,-4.1875 2.796875,-4.1875 c 0.359375,0 0.625,0.296875 0.625,0.9375 0,0.59375 -0.328125,1.734375 -0.515625,2.109375 -0.328125,0.671875 -0.78125,1.03125 -1.171875,1.03125 -0.34375,0 -0.671875,-0.265625 -0.671875,-1 0,-0.203125 0,-0.390625 0.15625,-1.015625 z m 0,0"/></g></g></g></g></g></svg>